<svg width="16" height="16" viewBox="0 0 16 16" fill="none" xmlns="http://www.w3.org/2000/svg">
<path d="M8 0.125C3.65117 0.125 0.125 3.65117 0.125 8C0.125 12.3488 3.65117 15.875 8 15.875C12.3488 15.875 15.875 12.3488 15.875 8C15.875 3.65117 12.3488 0.125 8 0.125ZM11.1025 10.4205L10.5998 11.1061C10.5889 11.121 10.5751 11.1336 10.5593 11.1432C10.5434 11.1528 10.5259 11.1591 10.5076 11.1619C10.4893 11.1647 10.4706 11.1638 10.4527 11.1594C10.4347 11.1549 10.4178 11.1469 10.4029 11.1359L7.49551 9.01602C7.4774 9.00301 7.46267 8.98584 7.45258 8.96596C7.44248 8.94607 7.43731 8.92406 7.4375 8.90176V4.0625C7.4375 3.98516 7.50078 3.92188 7.57812 3.92188H8.42363C8.50098 3.92188 8.56426 3.98516 8.56426 4.0625V8.41309L11.0709 10.2254C11.1342 10.2693 11.1482 10.3572 11.1025 10.4205Z" fill="#7A7D8C"/>
</svg>
