<svg width="11" height="20" viewBox="0 0 11 20" fill="none" xmlns="http://www.w3.org/2000/svg">
<path d="M3.00934 11.2871C2.53255 11.2871 2.08841 11.2871 1.65081 11.2871C1.26546 11.2871 0.886637 11.2936 0.501285 11.2806C0.135526 11.2675 0.00489855 11.15 0.00489855 10.7907C-0.00163285 9.75877 -0.00163285 8.72027 0.00489855 7.68831C0.0114299 7.32256 0.148589 7.20499 0.52741 7.20499C1.2524 7.19846 1.97738 7.20499 2.70237 7.20499C2.79381 7.20499 2.87871 7.20499 3.00281 7.20499C3.00281 7.09396 3.00281 7.00252 3.00281 6.90455C3.0224 5.97056 2.98975 5.03004 3.06159 4.09605C3.24447 1.93415 4.8512 0.268646 7.01309 0.0661723C8.12996 -0.0383301 9.25989 0.0139211 10.3833 0.0073897C10.638 0.0073897 10.7817 0.15108 10.7817 0.405805C10.7882 1.41817 10.7882 2.42401 10.7817 3.43637C10.7817 3.72376 10.625 3.84132 10.2853 3.84785C9.63871 3.86091 8.99863 3.86745 8.35203 3.87398C8.27365 3.87398 8.18874 3.87398 8.11036 3.88051C7.58785 3.92623 7.28088 4.18748 7.26128 4.71C7.22862 5.51336 7.25475 6.31672 7.25475 7.15274C7.34619 7.15274 7.43763 7.15274 7.52254 7.15274C8.37162 7.15274 9.21417 7.15274 10.0633 7.15274C10.5596 7.15274 10.6903 7.28337 10.6903 7.77322C10.6903 8.75293 10.6903 9.72611 10.6903 10.7058C10.6903 11.1434 10.5727 11.2545 10.1416 11.261C9.27295 11.2675 8.39775 11.261 7.52907 11.261C7.44416 11.261 7.35272 11.261 7.24169 11.261C7.24169 11.3851 7.24169 11.4765 7.24169 11.5745C7.24169 14.1217 7.24169 16.6755 7.24169 19.2228C7.24169 19.9282 7.16984 20 6.45139 20C5.5174 20 4.57688 20 3.64289 20C3.13997 20 3.0224 19.8759 3.0224 19.3795C3.0224 16.7866 3.0224 14.2001 3.0224 11.6072C3.00934 11.5092 3.00934 11.4177 3.00934 11.2871Z" fill="#7A7D8C"/>
</svg>
