<svg width="20" height="20" viewBox="0 0 20 20" fill="none" xmlns="http://www.w3.org/2000/svg">
<path d="M19.9491 5.87982C19.9021 4.81503 19.7299 4.08691 19.4833 3.45273C19.2288 2.77941 18.8373 2.18047 18.3284 1.67939C17.8274 1.17048 17.2206 0.775103 16.559 0.528479C15.9209 0.281856 15.1967 0.10961 14.1319 0.0626346C13.0593 0.011744 12.7187 0 10.002 0C7.28518 0 6.94461 0.011744 5.87982 0.0587199C4.81503 0.105696 4.08691 0.277941 3.45273 0.524565C2.77941 0.779017 2.18047 1.17048 1.67939 1.67939C1.17048 2.18047 0.775103 2.78724 0.528479 3.44882C0.281856 4.08691 0.10961 4.81112 0.0626346 5.87591C0.011744 6.94852 0 7.2891 0 10.002C0 12.7148 0.011744 13.0593 0.0587199 14.1241C0.105696 15.1889 0.277941 15.917 0.524565 16.5512C0.779017 17.2245 1.1744 17.8235 1.67939 18.3245C2.18047 18.8334 2.78724 19.2288 3.44882 19.4754C4.08691 19.7221 4.81112 19.8943 5.87591 19.9413C6.94069 19.9883 7.28127 20 9.99804 20C12.7148 20 13.0554 19.9883 14.1202 19.9413C15.185 19.8943 15.9131 19.7221 16.5473 19.4754C17.89 18.9548 18.9548 17.8939 19.4754 16.5473C19.7221 15.9092 19.8943 15.185 19.9413 14.1202C19.9883 13.0515 20 12.7148 20 9.99804C20 7.28127 19.9961 6.94852 19.9491 5.87982ZM18.1484 14.0497C18.1053 15.0284 17.9409 15.5529 17.8039 15.9053C17.4672 16.7782 16.7743 17.4672 15.9053 17.8039C15.5529 17.9409 15.0206 18.1053 14.0497 18.1484C12.9928 18.1953 12.6796 18.2071 10.0098 18.2071C7.33999 18.2071 7.01899 18.1953 5.96986 18.1484C4.99119 18.1053 4.46663 17.9409 4.11431 17.8039C3.67978 17.6434 3.2844 17.3889 2.96731 17.0562C2.63457 16.7313 2.38011 16.3398 2.21961 15.9092C2.0826 15.5569 1.91818 15.0245 1.87512 14.0536C1.82815 12.9967 1.8164 12.6835 1.8164 10.0137C1.8164 7.3439 1.82815 7.0229 1.87512 5.97377C1.91818 4.99511 2.0826 4.47054 2.21961 4.11822C2.3762 3.67978 2.63065 3.28832 2.96731 2.96731C3.29223 2.63457 3.6837 2.38011 4.11431 2.21961C4.46663 2.0826 4.99902 1.91818 5.96986 1.87512C7.02682 1.82815 7.33999 1.8164 10.0098 1.8164C12.6835 1.8164 13.0006 1.82815 14.0497 1.87512C15.0284 1.91818 15.5529 2.0826 15.9053 2.21961C16.3398 2.38011 16.7352 2.63457 17.0523 2.96731C17.385 3.29223 17.6395 3.6837 17.8 4.11822C17.937 4.47054 18.1014 5.00294 18.1445 5.97377C18.1914 7.03073 18.2032 7.3439 18.2032 10.0137C18.2032 12.6835 18.1953 12.9928 18.1484 14.0497Z" fill="#7A7D8C"/>
<path d="M10.002 4.86592C7.16383 4.86592 4.86201 7.16775 4.86201 10.0059C4.86201 12.844 7.16383 15.1458 10.002 15.1458C12.8401 15.1458 15.1419 12.844 15.1419 10.0059C15.1419 7.16775 12.8401 4.86592 10.002 4.86592ZM10.002 13.3373C8.16207 13.3373 6.66667 11.8458 6.66667 10.002C6.66667 8.15815 8.15815 6.66667 10.002 6.66667C11.8418 6.66667 13.3372 8.15815 13.3372 10.002C13.3372 11.8458 11.8458 13.3373 10.002 13.3373Z" fill="#7A7D8C"/>
<path d="M16.5473 4.66236C16.5473 5.32394 16.011 5.86025 15.3494 5.86025C14.6878 5.86025 14.1515 5.32394 14.1515 4.66236C14.1515 4.00079 14.6878 3.46448 15.3494 3.46448C16.007 3.46056 16.5473 4.00079 16.5473 4.66236Z" fill="#7A7D8C"/>
</svg>
