<svg width="16" height="13" viewBox="0 0 16 13" fill="none" xmlns="http://www.w3.org/2000/svg">
<path d="M15.2001 3.63531V10.0496C15.2001 10.6463 14.963 11.2186 14.541 11.6406C14.1191 12.0626 13.5468 12.2996 12.9501 12.2996H3.05005C2.45331 12.2996 1.88102 12.0626 1.45906 11.6406C1.0371 11.2186 0.800049 10.6463 0.800049 10.0496V3.63531L7.77145 7.73751C7.84071 7.77836 7.91964 7.7999 8.00005 7.7999C8.08045 7.7999 8.15939 7.77836 8.22865 7.73751L15.2001 3.63531ZM12.9501 0.599609C13.5037 0.599522 14.0379 0.803555 14.4505 1.17268C14.8632 1.5418 15.1252 2.05009 15.1866 2.60031L8.00005 6.82761L0.813549 2.60031C0.874891 2.05009 1.13694 1.5418 1.54956 1.17268C1.96219 0.803555 2.49642 0.599522 3.05005 0.599609H12.9501Z" fill="#7A7D8C"/>
</svg>
