<svg width="16" height="16" viewBox="0 0 16 16" fill="none" xmlns="http://www.w3.org/2000/svg">
<path d="M10.4355 11.0825L11.6955 9.82252C11.8653 9.65492 12.08 9.54019 12.3136 9.49226C12.5473 9.44434 12.7898 9.46527 13.0118 9.55252L14.5474 10.1656C14.7717 10.2567 14.9641 10.4121 15.1002 10.6123C15.2364 10.8125 15.3102 11.0486 15.3124 11.2906V14.1031C15.3111 14.2678 15.2765 14.4306 15.2106 14.5815C15.1448 14.7325 15.0491 14.8685 14.9293 14.9815C14.8094 15.0945 14.668 15.1821 14.5134 15.239C14.3589 15.2959 14.1944 15.3209 14.0299 15.3125C3.2693 14.6431 1.09805 5.53065 0.687423 2.04315C0.668361 1.87189 0.685777 1.69853 0.738525 1.53448C0.791272 1.37044 0.878156 1.21942 0.99346 1.09136C1.10876 0.963305 1.24988 0.861113 1.40751 0.791509C1.56515 0.721905 1.73573 0.686465 1.90805 0.687523H4.62492C4.86736 0.688241 5.10405 0.761473 5.30453 0.897802C5.50502 1.03413 5.66013 1.22732 5.74992 1.45252L6.36305 2.98815C6.45319 3.20925 6.47619 3.45201 6.42917 3.6861C6.38215 3.9202 6.2672 4.13525 6.09867 4.3044L4.83867 5.5644C4.83867 5.5644 5.5643 10.475 10.4355 11.0825Z" fill="#7A7D8C"/>
</svg>
