<svg width="14" height="14" viewBox="0 0 14 14" fill="none" xmlns="http://www.w3.org/2000/svg">
<path d="M9.16494 9.24002L10.2849 8.12002C10.4358 7.97104 10.6267 7.86906 10.8343 7.82646C11.042 7.78385 11.2576 7.80246 11.4549 7.88002L12.8199 8.42502C13.0193 8.50596 13.1903 8.64411 13.3113 8.82207C13.4324 9.00003 13.498 9.20982 13.4999 9.42502V11.925C13.4988 12.0714 13.468 12.216 13.4095 12.3502C13.3509 12.4844 13.2659 12.6054 13.1594 12.7058C13.0528 12.8062 12.9271 12.8841 12.7897 12.9346C12.6523 12.9852 12.5061 13.0074 12.3599 13C2.79494 12.405 0.864945 4.30502 0.499945 1.20502C0.483001 1.05279 0.498482 0.898694 0.545369 0.752875C0.592256 0.607056 0.669486 0.472817 0.771978 0.358988C0.874471 0.24516 0.999904 0.154323 1.14002 0.0924523C1.28014 0.0305818 1.43178 -0.00091958 1.58494 2.04345e-05H3.99994C4.21545 0.000658328 4.42583 0.0657541 4.60404 0.186935C4.78225 0.308116 4.92013 0.47984 4.99994 0.68002L5.54494 2.04502C5.62507 2.24155 5.64551 2.45734 5.60372 2.66543C5.56192 2.87351 5.45974 3.06467 5.30994 3.21502L4.18994 4.33502C4.18994 4.33502 4.83494 8.70002 9.16494 9.24002Z" fill="#242424"/>
</svg>
