<svg width="98" height="18" viewBox="0 0 98 18" fill="none" xmlns="http://www.w3.org/2000/svg">
<path d="M15.9628 6.20645L11.4997 5.55782L9.5046 1.51309C9.45011 1.40235 9.36046 1.3127 9.24972 1.25821C8.97198 1.1211 8.63448 1.23536 8.49562 1.51309L6.5005 5.55782L2.03741 6.20645C1.91437 6.22403 1.80187 6.28204 1.71573 6.36993C1.6116 6.47695 1.55422 6.62094 1.5562 6.77026C1.55818 6.91957 1.61935 7.06199 1.72628 7.16622L4.95538 10.3145L4.19249 14.76C4.1746 14.8634 4.18605 14.9697 4.22552 15.067C4.265 15.1642 4.33094 15.2484 4.41585 15.3101C4.50077 15.3718 4.60127 15.4084 4.70595 15.4159C4.81063 15.4234 4.91531 15.4014 5.00812 15.3523L9.00011 13.2535L12.9921 15.3523C13.1011 15.4104 13.2276 15.4297 13.3489 15.4086C13.6548 15.3559 13.8605 15.0658 13.8077 14.76L13.0448 10.3145L16.2739 7.16622C16.3618 7.08008 16.4198 6.96758 16.4374 6.84454C16.4849 6.53692 16.2704 6.25215 15.9628 6.20645Z" fill="#F4BB28"/>
<path d="M35.9628 6.20645L31.4997 5.55782L29.5046 1.51309C29.4501 1.40235 29.3605 1.3127 29.2497 1.25821C28.972 1.1211 28.6345 1.23536 28.4956 1.51309L26.5005 5.55782L22.0374 6.20645C21.9144 6.22403 21.8019 6.28204 21.7157 6.36993C21.6116 6.47695 21.5542 6.62094 21.5562 6.77026C21.5582 6.91957 21.6194 7.06199 21.7263 7.16622L24.9554 10.3145L24.1925 14.76C24.1746 14.8634 24.186 14.9697 24.2255 15.067C24.265 15.1642 24.3309 15.2484 24.4159 15.3101C24.5008 15.3718 24.6013 15.4084 24.7059 15.4159C24.8106 15.4234 24.9153 15.4014 25.0081 15.3523L29.0001 13.2535L32.9921 15.3523C33.1011 15.4104 33.2276 15.4297 33.3489 15.4086C33.6548 15.3559 33.8605 15.0658 33.8077 14.76L33.0448 10.3145L36.2739 7.16622C36.3618 7.08008 36.4198 6.96758 36.4374 6.84454C36.4849 6.53692 36.2704 6.25215 35.9628 6.20645Z" fill="#F4BB28"/>
<path d="M55.9628 6.20645L51.4997 5.55782L49.5046 1.51309C49.4501 1.40235 49.3605 1.3127 49.2497 1.25821C48.972 1.1211 48.6345 1.23536 48.4956 1.51309L46.5005 5.55782L42.0374 6.20645C41.9144 6.22403 41.8019 6.28204 41.7157 6.36993C41.6116 6.47695 41.5542 6.62094 41.5562 6.77026C41.5582 6.91957 41.6194 7.06199 41.7263 7.16622L44.9554 10.3145L44.1925 14.76C44.1746 14.8634 44.186 14.9697 44.2255 15.067C44.265 15.1642 44.3309 15.2484 44.4159 15.3101C44.5008 15.3718 44.6013 15.4084 44.7059 15.4159C44.8106 15.4234 44.9153 15.4014 45.0081 15.3523L49.0001 13.2535L52.9921 15.3523C53.1011 15.4104 53.2276 15.4297 53.3489 15.4086C53.6548 15.3559 53.8605 15.0658 53.8077 14.76L53.0448 10.3145L56.2739 7.16622C56.3618 7.08008 56.4198 6.96758 56.4374 6.84454C56.4849 6.53692 56.2704 6.25215 55.9628 6.20645Z" fill="#F4BB28"/>
<path d="M75.9628 6.20645L71.4997 5.55782L69.5046 1.51309C69.4501 1.40235 69.3605 1.3127 69.2497 1.25821C68.972 1.1211 68.6345 1.23536 68.4956 1.51309L66.5005 5.55782L62.0374 6.20645C61.9144 6.22403 61.8019 6.28204 61.7157 6.36993C61.6116 6.47695 61.5542 6.62094 61.5562 6.77026C61.5582 6.91957 61.6194 7.06199 61.7263 7.16622L64.9554 10.3145L64.1925 14.76C64.1746 14.8634 64.186 14.9697 64.2255 15.067C64.265 15.1642 64.3309 15.2484 64.4159 15.3101C64.5008 15.3718 64.6013 15.4084 64.7059 15.4159C64.8106 15.4234 64.9153 15.4014 65.0081 15.3523L69.0001 13.2535L72.9921 15.3523C73.1011 15.4104 73.2276 15.4297 73.3489 15.4086C73.6548 15.3559 73.8605 15.0658 73.8077 14.76L73.0448 10.3145L76.2739 7.16622C76.3618 7.08008 76.4198 6.96758 76.4374 6.84454C76.4849 6.53692 76.2704 6.25215 75.9628 6.20645Z" fill="#F4BB28"/>
<path d="M95.9628 6.20645L91.4997 5.55782L89.5046 1.51309C89.4501 1.40235 89.3605 1.3127 89.2497 1.25821C88.972 1.1211 88.6345 1.23536 88.4956 1.51309L86.5005 5.55782L82.0374 6.20645C81.9144 6.22403 81.8019 6.28204 81.7157 6.36993C81.6116 6.47695 81.5542 6.62094 81.5562 6.77026C81.5582 6.91957 81.6194 7.06199 81.7263 7.16622L84.9554 10.3145L84.1925 14.76C84.1746 14.8634 84.186 14.9697 84.2255 15.067C84.265 15.1642 84.3309 15.2484 84.4159 15.3101C84.5008 15.3718 84.6013 15.4084 84.7059 15.4159C84.8106 15.4234 84.9153 15.4014 85.0081 15.3523L89.0001 13.2535L92.9921 15.3523C93.1011 15.4104 93.2276 15.4297 93.3489 15.4086C93.6548 15.3559 93.8605 15.0658 93.8077 14.76L93.0448 10.3145L96.2739 7.16622C96.3618 7.08008 96.4198 6.96758 96.4374 6.84454C96.4849 6.53692 96.2704 6.25215 95.9628 6.20645Z" fill="#F4BB28"/>
</svg>
